<svg width="14" height="14" viewBox="0 0 20 20" fill="none" xmlns="http://www.w3.org/2000/svg">
<g filter="url(#filter0_d_977_183610)">
<path d="M4.79454 17C4.39732 17 4.05727 16.8694 3.7744 16.6083C3.49153 16.3472 3.3501 16.0333 3.3501 15.6667V7.66667C3.3501 7.3 3.49153 6.98611 3.7744 6.725C4.05727 6.46389 4.39732 6.33333 4.79454 6.33333H6.23899C6.23899 5.41111 6.59107 4.625 7.29524 3.975C7.9994 3.325 8.85102 3 9.8501 3C10.8492 3 11.7008 3.325 12.405 3.975C13.1091 4.625 13.4612 5.41111 13.4612 6.33333H14.9057C15.3029 6.33333 15.6429 6.46389 15.9258 6.725C16.2087 6.98611 16.3501 7.3 16.3501 7.66667V15.6667C16.3501 16.0333 16.2087 16.3472 15.9258 16.6083C15.6429 16.8694 15.3029 17 14.9057 17H4.79454ZM4.79454 15.6667H14.9057V7.66667H4.79454V15.6667ZM9.8501 11.6667C10.8492 11.6667 11.7008 11.3417 12.405 10.6917C13.1091 10.0417 13.4612 9.25556 13.4612 8.33333H12.0168C12.0168 8.88889 11.8061 9.36111 11.3848 9.75C10.9635 10.1389 10.4519 10.3333 9.8501 10.3333C9.24825 10.3333 8.73667 10.1389 8.31538 9.75C7.89408 9.36111 7.68343 8.88889 7.68343 8.33333H6.23899C6.23899 9.25556 6.59107 10.0417 7.29524 10.6917C7.9994 11.3417 8.85102 11.6667 9.8501 11.6667ZM7.68343 6.33333H12.0168C12.0168 5.77778 11.8061 5.30556 11.3848 4.91667C10.9635 4.52778 10.4519 4.33333 9.8501 4.33333C9.24825 4.33333 8.73667 4.52778 8.31538 4.91667C7.89408 5.30556 7.68343 5.77778 7.68343 6.33333Z" fill="white"/>
</g>
<defs>
<filter id="filter0_d_977_183610" x="0.350098" y="0" width="19" height="20" filterUnits="userSpaceOnUse" color-interpolation-filters="sRGB">
<feFlood flood-opacity="0" result="BackgroundImageFix"/>
<feColorMatrix in="SourceAlpha" type="matrix" values="0 0 0 0 0 0 0 0 0 0 0 0 0 0 0 0 0 0 127 0" result="hardAlpha"/>
<feOffset/>
<feGaussianBlur stdDeviation="1.5"/>
<feComposite in2="hardAlpha" operator="out"/>
<feColorMatrix type="matrix" values="0 0 0 0 0 0 0 0 0 0 0 0 0 0 0 0 0 0 0.25 0"/>
<feBlend mode="normal" in2="BackgroundImageFix" result="effect1_dropShadow_977_183610"/>
<feBlend mode="normal" in="SourceGraphic" in2="effect1_dropShadow_977_183610" result="shape"/>
</filter>
</defs>
</svg>
